<svg xmlns="http://www.w3.org/2000/svg" viewBox="0 0 1600 1200"><filter id="b"><feGaussianBlur stdDeviation="12" /></filter><path fill="#081319" d="M0 0h1600v1200H0z"/><g filter="url(#b)" transform="matrix(6.25 0 0 6.25 3.1 3.1)" fill-opacity=".5"><ellipse fill="#3cc4ff" rx="1" ry="1" transform="matrix(-115.83352 -.6065 .03981 -7.60369 120.5 96.7)"/><ellipse fill="#86ffff" cx="136" cy="96" rx="75" ry="3"/><path fill="#1072ef" d="M110 85h33v23h-33z"/><ellipse fill="#040100" rx="1" ry="1" transform="matrix(-254.2146 19.99851 -4.08657 -51.94722 195.8 13)"/><ellipse fill="#050200" rx="1" ry="1" transform="matrix(254.86037 8.43743 -1.36875 41.34445 94.3 167.5)"/><ellipse fill="#01255e" cx="93" cy="103" rx="223" ry="4"/><path fill="#327851" d="M0 87h52v13H0z"/><ellipse fill="#1a4c45" rx="1" ry="1" transform="matrix(88.31836 17.53866 -.95198 4.79384 255 101.5)"/></g></svg>