<svg xmlns="http://www.w3.org/2000/svg" viewBox="0 0 600 600"><filter id="b"><feGaussianBlur stdDeviation="12" /></filter><path fill="#796b58" d="M0 0h600v600H0z"/><g filter="url(#b)" transform="translate(1.2 1.2) scale(2.34375)" fill-opacity=".5"><ellipse fill="#a3ffff" rx="1" ry="1" transform="matrix(7.41868 -47.88093 80.5019 12.47298 177 .3)"/><ellipse fill="#002466" rx="1" ry="1" transform="rotate(-130.4 84.6 87.7) scale(58.64519 130.91477)"/><ellipse fill="#dea545" rx="1" ry="1" transform="matrix(-85.32033 -47.1462 20.48159 -37.06546 120.5 54.2)"/><ellipse fill="#660e00" cx="209" cy="233" rx="82" ry="32"/><ellipse fill="#e2be3f" rx="1" ry="1" transform="matrix(-4.49556 -22.68068 57.3237 -11.3622 30.9 116.2)"/><ellipse fill="#e59847" cx="255" cy="76" rx="61" ry="50"/><path fill="#ecce5f" d="M135 179h121v21H135z"/><ellipse fill="#54f9ff" rx="1" ry="1" transform="matrix(47.253 -2.75166 2.51863 43.25136 186.4 0)"/><ellipse fill="#00224e" rx="1" ry="1" transform="matrix(-37.07434 -76.40628 23.0403 -11.17976 26.7 218.2)"/><ellipse fill="#c03d20" rx="1" ry="1" transform="matrix(-58.4058 -15.6444 2.44413 -9.12475 111 196.8)"/></g></svg>